<svg xmlns="http://www.w3.org/2000/svg" shape-rendering="geometricPrecision" text-rendering="geometricPrecision" image-rendering="optimizeQuality" fill-rule="evenodd" clip-rule="evenodd" viewBox="0 0 512 316.683"><path d="M323.923 234.967c8.002-5.877 13.744-13.186 12.22-21.335-6.958-6.444-13.862-15.357-15.067-28.655l-.836.017c-1.931-.026-3.795-.465-5.53-1.451-3.839-2.186-5.947-6.366-6.958-11.139-1.287-6.042-.862-13.212-.238-17.736l.238-.882c1.338-3.732 2.994-5.759 5.099-6.641l.061-.025c-.96-17.973 2.079-44.426-16.38-50.011 35.903-45.032 73.956-60.181 109.998-29.465 35.145 1.842 50.82 51.63 28.999 79.501h-.925c2.104.882 3.761 2.909 5.1 6.641l.237.882c.624 4.524 1.049 11.694-.237 17.736-1.013 4.773-3.117 8.953-6.959 11.139-1.735.986-3.599 1.425-5.53 1.451l-.836-.017c-1.205 13.298-8.126 22.211-15.085 28.655-3.336 17.86 28.216 31.685 42.049 35.244 28.736 7.406 51.685 8.505 58.218 60.285.281 1.136.439 2.281.439 3.443a4.074 4.074 0 01-4.076 4.079h-161.85c.309-1.581.471-3.218.471-4.889 0-4.206-1.208-11.098-1.945-15.232l-.359-1.931c-1.312-7.951-2.911-16.045-4.816-23.726l-.37-1.793c-1.914-7.479-4.149-14.414-6.725-20.257-2.309-5.233-5.134-9.829-8.407-13.888zM4.874 316.68A4.877 4.877 0 010 311.794c0-3.426 1.619-11.792 2.082-14.585 2.466-14.871 5.787-29.736 10.023-39.484 13.154-30.234 73.279-33.379 108.688-47.123v-25.891c-23.59-1.122-52.953-2.964-69.34-22.48 17.971-6.768 26.253-28.023 27.401-59.788.847-23.608-4.027-31.009 4.018-54.316 15.95-46.148 74.92-61.927 107.77-34.925 25.761-2.735 51.713 10.546 57.319 50.265 4.177 29.664-4.672 48.27 4.666 75.592 4.012 11.738 11.014 20.743 21.951 26.01-16.751 16.034-51.948 18.075-73.908 19.243v26.29c39.852 14.143 97.68 11.995 112.91 46.507 4.431 10.058 7.929 25.397 10.494 40.962.41 2.524 1.957 10.61 1.957 13.723a4.882 4.882 0 01-4.88 4.886H4.874z"/></svg>